<svg xmlns="http://www.w3.org/2000/svg" width="860" height="592" viewBox="0 0 860 592" role="img" aria-label="四段聊天演示：写周报，“帮我把这周的笔记整理成周报”，由技能 cn-weekly-report 回答；申论，“申论大作文写基层治理，帮我列提纲”，由技能 cn-civil-exam-essay 回答；考研，“离考研还剩 80 天，数学才复习一半”，由技能 cn-kaoyan-planner 回答；小红书，“写一篇小红书，推荐通勤咖啡杯”，由技能 xiaohongshu-note 回答">
<style>
text{font-family:"PingFang SC","Noto Sans CJK SC","Microsoft YaHei",sans-serif}
@keyframes blink{0%,100%{opacity:.25}50%{opacity:1}}.d1,.d2,.d3{animation:blink 1s infinite}.d2{animation-delay:.2s}.d3{animation-delay:.4s}
@keyframes u0{0%,2.50%{opacity:0;transform:translateY(6px)}4.38%,92.50%{opacity:1;transform:none}96.88%,100%{opacity:0}}.u0{animation:u0 16s infinite}
@keyframes r0{0%,14.37%{opacity:0;transform:translateY(6px)}16.25%,92.50%{opacity:1;transform:none}96.88%,100%{opacity:0}}.r0{animation:r0 16s infinite}
@keyframes t0{0%,6.88%{opacity:0}7.50%,14.06%{opacity:1}14.37%,100%{opacity:0}}.t0{animation:t0 16s infinite;opacity:0}
@keyframes u1{0%,18.75%{opacity:0;transform:translateY(6px)}20.63%,92.50%{opacity:1;transform:none}96.88%,100%{opacity:0}}.u1{animation:u1 16s infinite}
@keyframes r1{0%,30.63%{opacity:0;transform:translateY(6px)}32.50%,92.50%{opacity:1;transform:none}96.88%,100%{opacity:0}}.r1{animation:r1 16s infinite}
@keyframes t1{0%,23.13%{opacity:0}23.75%,30.31%{opacity:1}30.63%,100%{opacity:0}}.t1{animation:t1 16s infinite;opacity:0}
@keyframes u2{0%,35.00%{opacity:0;transform:translateY(6px)}36.88%,92.50%{opacity:1;transform:none}96.88%,100%{opacity:0}}.u2{animation:u2 16s infinite}
@keyframes r2{0%,46.88%{opacity:0;transform:translateY(6px)}48.75%,92.50%{opacity:1;transform:none}96.88%,100%{opacity:0}}.r2{animation:r2 16s infinite}
@keyframes t2{0%,39.38%{opacity:0}40.00%,46.56%{opacity:1}46.88%,100%{opacity:0}}.t2{animation:t2 16s infinite;opacity:0}
@keyframes u3{0%,51.25%{opacity:0;transform:translateY(6px)}53.13%,92.50%{opacity:1;transform:none}96.88%,100%{opacity:0}}.u3{animation:u3 16s infinite}
@keyframes r3{0%,63.13%{opacity:0;transform:translateY(6px)}65.00%,92.50%{opacity:1;transform:none}96.88%,100%{opacity:0}}.r3{animation:r3 16s infinite}
@keyframes t3{0%,55.63%{opacity:0}56.25%,62.81%{opacity:1}63.13%,100%{opacity:0}}.t3{animation:t3 16s infinite;opacity:0}
@media (prefers-reduced-motion: reduce){[class]{animation:none!important}}
</style>
<rect width="860" height="592" rx="16" fill="#15181d"/>
<rect x="12" y="12" width="412" height="278" rx="14" fill="#181c21" stroke="#2f3640"/><path d="M12 50V26a14 14 0 0 1 14-14H410a14 14 0 0 1 14 14V50Z" fill="#232931"/><path d="M12 50H424" stroke="#2f3640"/><path d="M32 25l-6 6 6 6" fill="none" stroke="#eef1f4" stroke-width="1.8" stroke-linecap="round" stroke-linejoin="round"/><text x="218" y="37" text-anchor="middle" font-size="14.5" font-weight="600" fill="#eef1f4">写周报</text><g fill="#eef1f4"><circle cx="394" cy="31" r="1.8"/><circle cx="401" cy="31" r="1.8"/><circle cx="408" cy="31" r="1.8"/></g><path d="M12 250H424" stroke="#2f3640"/><rect x="24" y="259" width="388" height="22" rx="6" fill="#232931" stroke="#2f3640"/><text x="34" y="274.5" font-size="11.5" fill="#9aa4b1">用中文说出你要做的事…</text>
<g class="u0"><rect x="382" y="64" width="30" height="30" rx="6" fill="#f2a65a"/><text x="397" y="84" text-anchor="middle" font-size="13" font-weight="600" fill="#1f242b">我</text><path d="M374 75l6 4-6 4Z" fill="#3eb575"/><rect x="168.5" y="64" width="205.5" height="32" rx="6" fill="#3eb575"/><text x="180.5" y="85" font-size="13.5" fill="#0d1f14">帮我把这周的笔记整理成周报</text></g>
<g class="t0"><rect x="24" y="110" width="30" height="30" rx="6" fill="#7cc4ae"/><text x="39" y="130" text-anchor="middle" font-size="13" font-weight="600" fill="#1f242b">技</text><path d="M62 121l-6 4 6 4Z" fill="#2c333c"/><rect x="62" y="110" width="58" height="32" rx="6" fill="#2c333c"/><g fill="#9aa4b1"><circle class="d1" cx="79" cy="126" r="3"/><circle class="d2" cx="91" cy="126" r="3"/><circle class="d3" cx="103" cy="126" r="3"/></g></g>
<g class="r0"><rect x="24" y="110" width="30" height="30" rx="6" fill="#7cc4ae"/><text x="39" y="130" text-anchor="middle" font-size="13" font-weight="600" fill="#1f242b">技</text><path d="M62 121l-6 4 6 4Z" fill="#2c333c"/><rect x="62" y="110" width="291.4" height="111" rx="6" fill="#2c333c"/><rect x="72" y="119" width="143.60000000000002" height="22" rx="11" fill="#3b2f4f"/><text x="79" y="134" font-size="12" fill="#e9dcff" font-family='ui-monospace,SFMono-Regular,Menlo,monospace'>⚡ cn-weekly-report</text><text x="74" y="162" font-size="13" fill="#eef1f4">一、本周完成：新注册流程上线，转化 +12%</text><text x="74" y="185" font-size="13" fill="#eef1f4">二、下周计划：灰度到 50%，补齐埋点</text><text x="74" y="208" font-size="13" fill="#eef1f4">三、风险：设计排期紧张，需要协调</text></g>
<rect x="436" y="12" width="412" height="278" rx="14" fill="#181c21" stroke="#2f3640"/><path d="M436 50V26a14 14 0 0 1 14-14H834a14 14 0 0 1 14 14V50Z" fill="#232931"/><path d="M436 50H848" stroke="#2f3640"/><path d="M456 25l-6 6 6 6" fill="none" stroke="#eef1f4" stroke-width="1.8" stroke-linecap="round" stroke-linejoin="round"/><text x="642" y="37" text-anchor="middle" font-size="14.5" font-weight="600" fill="#eef1f4">申论</text><g fill="#eef1f4"><circle cx="818" cy="31" r="1.8"/><circle cx="825" cy="31" r="1.8"/><circle cx="832" cy="31" r="1.8"/></g><path d="M436 250H848" stroke="#2f3640"/><rect x="448" y="259" width="388" height="22" rx="6" fill="#232931" stroke="#2f3640"/><text x="458" y="274.5" font-size="11.5" fill="#9aa4b1">用中文说出你要做的事…</text>
<g class="u1"><rect x="806" y="64" width="30" height="30" rx="6" fill="#f2a65a"/><text x="821" y="84" text-anchor="middle" font-size="13" font-weight="600" fill="#1f242b">我</text><path d="M798 75l6 4-6 4Z" fill="#3eb575"/><rect x="552" y="64" width="246" height="32" rx="6" fill="#3eb575"/><text x="564" y="85" font-size="13.5" fill="#0d1f14">申论大作文写基层治理，帮我列提纲</text></g>
<g class="t1"><rect x="448" y="110" width="30" height="30" rx="6" fill="#7cc4ae"/><text x="463" y="130" text-anchor="middle" font-size="13" font-weight="600" fill="#1f242b">技</text><path d="M486 121l-6 4 6 4Z" fill="#2c333c"/><rect x="486" y="110" width="58" height="32" rx="6" fill="#2c333c"/><g fill="#9aa4b1"><circle class="d1" cx="503" cy="126" r="3"/><circle class="d2" cx="515" cy="126" r="3"/><circle class="d3" cx="527" cy="126" r="3"/></g></g>
<g class="r1"><rect x="448" y="110" width="30" height="30" rx="6" fill="#7cc4ae"/><text x="463" y="130" text-anchor="middle" font-size="13" font-weight="600" fill="#1f242b">技</text><path d="M486 121l-6 4 6 4Z" fill="#2c333c"/><rect x="486" y="110" width="298.68" height="111" rx="6" fill="#2c333c"/><rect x="496" y="119" width="165.2" height="22" rx="11" fill="#3b2f4f"/><text x="503" y="134" font-size="12" fill="#e9dcff" font-family='ui-monospace,SFMono-Regular,Menlo,monospace'>⚡ cn-civil-exam-essay</text><text x="498" y="162" font-size="13" fill="#eef1f4">总论点：基层治理贵在精细，重在为民</text><text x="498" y="185" font-size="13" fill="#eef1f4">分论点：数字赋能 · 多元共治 · 为基层减负</text><text x="498" y="208" font-size="13" fill="#eef1f4">✓ 附开头示范段和 3 个可用素材</text></g>
<rect x="12" y="302" width="412" height="278" rx="14" fill="#181c21" stroke="#2f3640"/><path d="M12 340V316a14 14 0 0 1 14-14H410a14 14 0 0 1 14 14V340Z" fill="#232931"/><path d="M12 340H424" stroke="#2f3640"/><path d="M32 315l-6 6 6 6" fill="none" stroke="#eef1f4" stroke-width="1.8" stroke-linecap="round" stroke-linejoin="round"/><text x="218" y="327" text-anchor="middle" font-size="14.5" font-weight="600" fill="#eef1f4">考研</text><g fill="#eef1f4"><circle cx="394" cy="321" r="1.8"/><circle cx="401" cy="321" r="1.8"/><circle cx="408" cy="321" r="1.8"/></g><path d="M12 540H424" stroke="#2f3640"/><rect x="24" y="549" width="388" height="22" rx="6" fill="#232931" stroke="#2f3640"/><text x="34" y="564.5" font-size="11.5" fill="#9aa4b1">用中文说出你要做的事…</text>
<g class="u2"><rect x="382" y="354" width="30" height="30" rx="6" fill="#f2a65a"/><text x="397" y="374" text-anchor="middle" font-size="13" font-weight="600" fill="#1f242b">我</text><path d="M374 365l6 4-6 4Z" fill="#3eb575"/><rect x="124.75999999999999" y="354" width="249.24" height="32" rx="6" fill="#3eb575"/><text x="136.76" y="375" font-size="13.5" fill="#0d1f14">离考研还剩 80 天，数学才复习一半</text></g>
<g class="t2"><rect x="24" y="400" width="30" height="30" rx="6" fill="#7cc4ae"/><text x="39" y="420" text-anchor="middle" font-size="13" font-weight="600" fill="#1f242b">技</text><path d="M62 411l-6 4 6 4Z" fill="#2c333c"/><rect x="62" y="400" width="58" height="32" rx="6" fill="#2c333c"/><g fill="#9aa4b1"><circle class="d1" cx="79" cy="416" r="3"/><circle class="d2" cx="91" cy="416" r="3"/><circle class="d3" cx="103" cy="416" r="3"/></g></g>
<g class="r2"><rect x="24" y="400" width="30" height="30" rx="6" fill="#7cc4ae"/><text x="39" y="420" text-anchor="middle" font-size="13" font-weight="600" fill="#1f242b">技</text><path d="M62 411l-6 4 6 4Z" fill="#2c333c"/><rect x="62" y="400" width="273.20000000000005" height="111" rx="6" fill="#2c333c"/><rect x="72" y="409" width="150.8" height="22" rx="11" fill="#3b2f4f"/><text x="79" y="424" font-size="12" fill="#e9dcff" font-family='ui-monospace,SFMono-Regular,Menlo,monospace'>⚡ cn-kaoyan-planner</text><text x="74" y="452" font-size="13" fill="#eef1f4">阶段：强化收尾，转入真题，倒排到考前</text><text x="74" y="475" font-size="13" fill="#eef1f4">每天：数学 4h · 专业课 3h · 英语 2h</text><text x="74" y="498" font-size="13" fill="#eef1f4">✓ 每周日整套真题模考，按错题调整</text></g>
<rect x="436" y="302" width="412" height="278" rx="14" fill="#181c21" stroke="#2f3640"/><path d="M436 340V316a14 14 0 0 1 14-14H834a14 14 0 0 1 14 14V340Z" fill="#232931"/><path d="M436 340H848" stroke="#2f3640"/><path d="M456 315l-6 6 6 6" fill="none" stroke="#eef1f4" stroke-width="1.8" stroke-linecap="round" stroke-linejoin="round"/><text x="642" y="327" text-anchor="middle" font-size="14.5" font-weight="600" fill="#eef1f4">小红书</text><g fill="#eef1f4"><circle cx="818" cy="321" r="1.8"/><circle cx="825" cy="321" r="1.8"/><circle cx="832" cy="321" r="1.8"/></g><path d="M436 540H848" stroke="#2f3640"/><rect x="448" y="549" width="388" height="22" rx="6" fill="#232931" stroke="#2f3640"/><text x="458" y="564.5" font-size="11.5" fill="#9aa4b1">用中文说出你要做的事…</text>
<g class="u3"><rect x="806" y="354" width="30" height="30" rx="6" fill="#f2a65a"/><text x="821" y="374" text-anchor="middle" font-size="13" font-weight="600" fill="#1f242b">我</text><path d="M798 365l6 4-6 4Z" fill="#3eb575"/><rect x="579" y="354" width="219" height="32" rx="6" fill="#3eb575"/><text x="591" y="375" font-size="13.5" fill="#0d1f14">写一篇小红书，推荐通勤咖啡杯</text></g>
<g class="t3"><rect x="448" y="400" width="30" height="30" rx="6" fill="#7cc4ae"/><text x="463" y="420" text-anchor="middle" font-size="13" font-weight="600" fill="#1f242b">技</text><path d="M486 411l-6 4 6 4Z" fill="#2c333c"/><rect x="486" y="400" width="58" height="32" rx="6" fill="#2c333c"/><g fill="#9aa4b1"><circle class="d1" cx="503" cy="416" r="3"/><circle class="d2" cx="515" cy="416" r="3"/><circle class="d3" cx="527" cy="416" r="3"/></g></g>
<g class="r3"><rect x="448" y="400" width="30" height="30" rx="6" fill="#7cc4ae"/><text x="463" y="420" text-anchor="middle" font-size="13" font-weight="600" fill="#1f242b">技</text><path d="M486 411l-6 4 6 4Z" fill="#2c333c"/><rect x="486" y="400" width="281.52" height="111" rx="6" fill="#2c333c"/><rect x="496" y="409" width="143.60000000000002" height="22" rx="11" fill="#3b2f4f"/><text x="503" y="424" font-size="12" fill="#e9dcff" font-family='ui-monospace,SFMono-Regular,Menlo,monospace'>⚡ xiaohongshu-note</text><text x="498" y="452" font-size="13" fill="#eef1f4">标题：通勤党闭眼入｜一只杯子撑一整天</text><text x="498" y="475" font-size="13" fill="#eef1f4">正文：3 个痛点 + 真实用了 30 天的感受</text><text x="498" y="498" font-size="13" fill="#eef1f4">标签：#通勤好物 #打工人 #咖啡杯</text></g>
</svg>
